# xmcd CD database file
#
# Track frame offsets:
#	150
#	22331
#	48665
#	70426
#	89004
#	99090
#	121682
#	148619
#	161147
#	184960
#	202102
#	223716
#	239161
#	256085
#	278115
#	297333
#	324703
#
# Disc length: 4516 seconds
#
# Revision: 2
# Processed by: cddbd v1.5.1PL2 Copyright (c) Steve Scherf et al.
# Submitted via: CDex 1.51
#
DISCID=1611a211
DTITLE=farandadj.it - selección con mucho sabor
DYEAR=2006
DGENRE=Salsa
TTITLE0=Paquito hechavarria - Just the Two of Us
TTITLE1=Direct Latin Influence - La la la
TTITLE2=Orquesta de la Luz - Salsa Y Control
TTITLE3=La Muchahcita Del Guaguanco - Jesus Navarro
TTITLE4=El Gran Combo de Puerto Rico - Milonga sentimental
TTITLE5=Tommy Olivencia - Trucutu
TTITLE6=Azabache - Cinco a diez
TTITLE7=Louie Ramirez - Sabroso guaguancò
TTITLE8=Barbarito López (Puchunguito) - Julio El Pianista
TTITLE9=El Gran Combo de Puerto Rico - Los zapatos de manacho
TTITLE10=Chino Rodriguez - Te haces
TTITLE11=Tito Rodriguez - LLora Timbero
TTITLE12=Gran Combo de Puerto Rico - Sube nene sube
TTITLE13=Fatal Mambo - Problem
TTITLE14=Orquesta Zodiac - inedita
TTITLE15=Wayne Gorbea's - El Yo-yo
TTITLE16=La Tipica 73 - El Celoso
EXTD=YEAR: 2006
EXTT0=
EXTT1=
EXTT2=
EXTT3=
EXTT4=
EXTT5=
EXTT6=
EXTT7=
EXTT8=
EXTT9=
EXTT10=
EXTT11=
EXTT12=
EXTT13=
EXTT14=
EXTT15=
EXTT16=
PLAYORDER=
